# Blender 4.5.0
# www.blender.org
o Cylinder
v 0.000000 -0.500000 0.000000
v -0.000000 0.500000 0.000000
v 0.000000 -0.350000 -0.018750
v -0.000000 0.400000 -0.037500
v 0.009375 -0.350000 -0.016238
v 0.018750 0.400000 -0.032476
v 0.016238 -0.350000 -0.009375
v 0.032476 0.400000 -0.018750
v 0.018750 -0.350000 -0.000000
v 0.037500 0.400000 -0.000000
v 0.016238 -0.350000 0.009375
v 0.032476 0.400000 0.018750
v 0.009375 -0.350000 0.016238
v 0.018750 0.400000 0.032476
v 0.000000 -0.350000 0.018750
v -0.000000 0.400000 0.037500
v -0.009375 -0.350000 0.016238
v -0.018750 0.400000 0.032476
v -0.016238 -0.350000 0.009375
v -0.032476 0.400000 0.018750
v -0.018750 -0.350000 0.000000
v -0.037500 0.400000 0.000000
v -0.016238 -0.350000 -0.009375
v -0.032476 0.400000 -0.018750
v -0.009375 -0.350000 -0.016238
v -0.018750 0.400000 -0.032476
vn 0.2570 -0.1199 -0.9590
vn 0.2433 0.3406 -0.9082
vn 0.2587 -0.0241 -0.9656
vn 0.7020 -0.1199 -0.7020
vn 0.6648 0.3406 -0.6648
vn 0.7069 -0.0241 -0.7069
vn 0.9590 -0.1199 -0.2570
vn 0.9082 0.3406 -0.2433
vn 0.9656 -0.0241 -0.2587
vn 0.9590 -0.1199 0.2570
vn 0.9082 0.3406 0.2433
vn 0.9656 -0.0241 0.2587
vn 0.7020 -0.1199 0.7020
vn 0.6648 0.3406 0.6648
vn 0.7069 -0.0241 0.7069
vn 0.2570 -0.1199 0.9590
vn 0.2433 0.3406 0.9082
vn 0.2587 -0.0241 0.9656
vn -0.2570 -0.1199 0.9590
vn -0.2433 0.3406 0.9082
vn -0.2587 -0.0241 0.9656
vn -0.7020 -0.1199 0.7020
vn -0.6648 0.3406 0.6648
vn -0.7069 -0.0241 0.7069
vn -0.9590 -0.1199 0.2570
vn -0.9082 0.3406 0.2433
vn -0.9656 -0.0241 0.2587
vn -0.9590 -0.1199 -0.2570
vn -0.9082 0.3406 -0.2433
vn -0.9656 -0.0241 -0.2587
vn -0.7020 -0.1199 -0.7020
vn -0.6648 0.3406 -0.6648
vn -0.7069 -0.0241 -0.7069
vn -0.2570 -0.1199 -0.9590
vn -0.2433 0.3406 -0.9082
vn -0.2587 -0.0241 -0.9656
vt 0.500000 0.000055
vt 0.265625 0.125000
vt 0.187500 0.125000
vt 0.500000 0.999945
vt 0.187500 0.875000
vt 0.265625 0.875000
vt 0.109375 0.125000
vt 0.109375 0.875000
vt 0.000000 0.125000
vt 0.000000 0.875000
vt 1.000000 0.125000
vt 0.890625 0.125000
vt 0.890625 0.875000
vt 1.000000 0.875000
vt 0.812500 0.125000
vt 0.812500 0.875000
vt 0.734375 0.125000
vt 0.735320 0.875000
vt 0.656250 0.125000
vt 0.656250 0.875000
vt 0.578444 0.125000
vt 0.578125 0.875000
vt 0.500000 0.125000
vt 0.500000 0.875000
vt 0.421875 0.125000
vt 0.421875 0.875000
vt 0.343750 0.125000
vt 0.343750 0.875000
s 1
f 1/1/1 3/2/1 5/3/1
f 2/4/2 6/5/2 4/6/2
f 3/2/3 4/6/3 6/5/3 5/3/3
f 1/1/4 5/3/4 7/7/4
f 2/4/5 8/8/5 6/5/5
f 5/3/6 6/5/6 8/8/6 7/7/6
f 1/1/7 7/7/7 9/9/7
f 2/4/8 10/10/8 8/8/8
f 7/7/9 8/8/9 10/10/9 9/9/9
f 1/1/10 9/11/10 11/12/10
f 2/4/11 12/13/11 10/14/11
f 9/11/12 10/14/12 12/13/12 11/12/12
f 1/1/13 11/12/13 13/15/13
f 2/4/14 14/16/14 12/13/14
f 11/12/15 12/13/15 14/16/15 13/15/15
f 1/1/16 13/15/16 15/17/16
f 2/4/17 16/18/17 14/16/17
f 13/15/18 14/16/18 16/18/18 15/17/18
f 1/1/19 15/17/19 17/19/19
f 2/4/20 18/20/20 16/18/20
f 15/17/21 16/18/21 18/20/21 17/19/21
f 1/1/22 17/19/22 19/21/22
f 2/4/23 20/22/23 18/20/23
f 17/19/24 18/20/24 20/22/24 19/21/24
f 1/1/25 19/21/25 21/23/25
f 2/4/26 22/24/26 20/22/26
f 19/21/27 20/22/27 22/24/27 21/23/27
f 1/1/28 21/23/28 23/25/28
f 2/4/29 24/26/29 22/24/29
f 21/23/30 22/24/30 24/26/30 23/25/30
f 1/1/31 23/25/31 25/27/31
f 2/4/32 26/28/32 24/26/32
f 23/25/33 24/26/33 26/28/33 25/27/33
f 1/1/34 25/27/34 3/2/34
f 2/4/35 4/6/35 26/28/35
f 25/27/36 26/28/36 4/6/36 3/2/36
