# Blender 4.5.0
# www.blender.org
o Cone
v 0.000000 0.500000 0.000000
v 0.000000 0.500000 0.050000
v 0.035355 0.500000 0.035355
v 0.050000 0.500000 0.000000
v 0.035355 0.500000 -0.035355
v 0.000000 0.500000 -0.050000
v -0.035355 0.500000 -0.035355
v -0.050000 0.500000 0.000000
v -0.035355 0.500000 0.035355
v 0.000000 -0.500000 -0.000000
vn -0.0000 1.0000 -0.0000
vn 0.3823 -0.0461 0.9229
vn 0.9229 -0.0461 0.3823
vn 0.9229 -0.0461 -0.3823
vn 0.3823 -0.0461 -0.9229
vn -0.3823 -0.0461 -0.9229
vn -0.9229 -0.0461 -0.3823
vn -0.9229 -0.0461 0.3823
vn -0.3823 -0.0461 0.9229
vt 0.437500 1.000000
vt 0.375115 0.984375
vt 0.499885 0.984375
vt 0.437500 0.000000
vt 0.062500 1.000000
vt 0.000000 0.984375
vt 0.125000 0.984375
vt 0.062500 -0.000000
vt 0.187500 1.000000
vt 0.249885 0.984375
vt 0.187500 -0.000000
vt 0.312500 1.000000
vt 0.250115 0.984375
vt 0.374885 0.984375
vt 0.312500 -0.000000
vt 0.562500 1.000000
vt 0.500115 0.984375
vt 0.625000 0.984375
vt 0.562500 0.000000
vt 0.687500 1.000000
vt 0.750000 0.984375
vt 0.687500 0.000000
vt 0.812500 1.000000
vt 0.875000 0.984375
vt 0.812500 0.000000
vt 0.937500 1.000000
vt 1.000000 0.984375
vt 0.937500 0.000000
s 0
f 1/1/1 2/2/1 3/3/1
f 2/2/2 10/4/2 3/3/2
f 1/5/1 3/6/1 4/7/1
f 3/6/3 10/8/3 4/7/3
f 1/9/1 4/7/1 5/10/1
f 4/7/4 10/11/4 5/10/4
f 1/12/1 5/13/1 6/14/1
f 5/13/5 10/15/5 6/14/5
f 1/16/1 6/17/1 7/18/1
f 6/17/6 10/19/6 7/18/6
f 1/20/1 7/18/1 8/21/1
f 7/18/7 10/22/7 8/21/7
f 1/23/1 8/21/1 9/24/1
f 8/21/8 10/25/8 9/24/8
f 1/26/1 9/24/1 2/27/1
f 9/24/9 10/28/9 2/27/9
