# Blender 4.5.0
# www.blender.org
o Cube
v 1.000000 1.000000 -1.000000
v 1.000000 -1.000000 -1.000000
v 1.000000 1.000000 1.000000
v 1.000000 -1.000000 1.000000
v -1.000000 1.000000 -1.000000
v -1.000000 -1.000000 -1.000000
v -1.000000 1.000000 1.000000
v -1.000000 -1.000000 1.000000
v 1.000000 1.000000 -0.500000
v 1.000000 1.000000 -0.000000
v 1.000000 1.000000 0.500000
v 0.500000 1.000000 -1.000000
v 0.000000 1.000000 -1.000000
v -0.500000 1.000000 -1.000000
v -1.000000 1.000000 -0.500000
v -1.000000 1.000000 -0.000000
v -1.000000 1.000000 0.500000
v 0.500000 1.000000 1.000000
v 0.000000 1.000000 1.000000
v -0.500000 1.000000 1.000000
v 0.500000 -1.000000 1.000000
v 0.000000 -1.000000 1.000000
v -0.500000 -1.000000 1.000000
v 1.000000 0.500000 1.000000
v 1.000000 0.000000 1.000000
v 1.000000 -0.500000 1.000000
v -1.000000 0.500000 1.000000
v -1.000000 0.000000 1.000000
v -1.000000 -0.500000 1.000000
v -1.000000 -1.000000 -0.500000
v -1.000000 -1.000000 0.000000
v -1.000000 -1.000000 0.500000
v -1.000000 0.500000 -1.000000
v -1.000000 -0.000000 -1.000000
v -1.000000 -0.500000 -1.000000
v 0.500000 -1.000000 -1.000000
v 0.000000 -1.000000 -1.000000
v -0.500000 -1.000000 -1.000000
v 1.000000 -1.000000 -0.500000
v 1.000000 -1.000000 0.000000
v 1.000000 -1.000000 0.500000
v 1.000000 0.500000 -1.000000
v 1.000000 -0.000000 -1.000000
v 1.000000 -0.500000 -1.000000
v 0.500000 1.000000 -0.500000
v 0.000000 1.000000 -0.500000
v -0.500000 1.000000 -0.500000
v 0.500000 1.000000 -0.000000
v 0.000000 1.000000 -0.000000
v -0.500000 1.000000 -0.000000
v 0.500000 1.000000 0.500000
v 0.000000 1.000000 0.500000
v -0.500000 1.000000 0.500000
v 0.500000 -0.500000 1.000000
v 0.500000 0.000000 1.000000
v 0.500000 0.500000 1.000000
v 0.000000 -0.500000 1.000000
v -0.000000 0.000000 1.000000
v 0.000000 0.500000 1.000000
v -0.500000 -0.500000 1.000000
v -0.500000 0.000000 1.000000
v -0.500000 0.500000 1.000000
v -1.000000 -0.500000 0.500000
v -1.000000 0.000000 0.500000
v -1.000000 0.500000 0.500000
v -1.000000 -0.500000 0.000000
v -1.000000 -0.000000 -0.000000
v -1.000000 0.500000 -0.000000
v -1.000000 -0.500000 -0.500000
v -1.000000 -0.000000 -0.500000
v -1.000000 0.500000 -0.500000
v -0.500000 -1.000000 -0.500000
v 0.000000 -1.000000 -0.500000
v 0.500000 -1.000000 -0.500000
v -0.500000 -1.000000 0.000000
v 0.000000 -1.000000 0.000000
v 0.500000 -1.000000 0.000000
v -0.500000 -1.000000 0.500000
v 0.000000 -1.000000 0.500000
v 0.500000 -1.000000 0.500000
v 1.000000 -0.500000 -0.500000
v 1.000000 -0.000000 -0.500000
v 1.000000 0.500000 -0.500000
v 1.000000 -0.500000 0.000000
v 1.000000 0.000000 -0.000000
v 1.000000 0.500000 -0.000000
v 1.000000 -0.500000 0.500000
v 1.000000 0.000000 0.500000
v 1.000000 0.500000 0.500000
v -0.500000 -0.500000 -1.000000
v -0.500000 -0.000000 -1.000000
v -0.500000 0.500000 -1.000000
v -0.000000 -0.500000 -1.000000
v 0.000000 -0.000000 -1.000000
v 0.000000 0.500000 -1.000000
v 0.500000 -0.500000 -1.000000
v 0.500000 -0.000000 -1.000000
v 0.500000 0.500000 -1.000000
vn -0.0000 1.0000 -0.0000
vn -0.0000 -0.0000 1.0000
vn -1.0000 -0.0000 -0.0000
vn -0.0000 -1.0000 -0.0000
vn 1.0000 -0.0000 -0.0000
vn -0.0000 -0.0000 -1.0000
vt 0.250000 0.750043
vt 0.250000 0.500043
vt 0.500000 0.500043
vt 0.500000 0.750043
vt 0.250000 0.250043
vt 0.500000 0.250043
vt 0.750000 0.500043
vt 0.750000 0.750043
vt 0.750000 0.250043
vt 0.000000 1.000043
vt 0.000000 0.750043
vt 0.250000 1.000043
vt 0.000000 0.500043
vt 0.000000 0.250043
vt 0.000000 0.000043
vt 0.250000 0.000043
vt 0.500000 0.000043
vt 0.750000 0.000043
vt 1.000000 0.000043
vt 1.000000 0.250043
vt 1.000000 0.500043
vt 1.000000 0.750043
vt 0.750000 1.000043
vt 1.000000 1.000043
vt 0.500000 1.000043
vt 0.249992 0.750031
vt 0.249995 0.500041
vt 0.499989 0.500027
vt 0.499984 0.750014
vt 0.249997 0.250050
vt 0.499995 0.250041
vt 0.749984 0.500014
vt 0.749976 0.749996
vt 0.749992 0.250031
vt 0.000000 0.750049
vt 0.249989 1.000022
vt 0.000000 0.500054
vt 0.000000 0.250060
vt 0.000000 0.000065
vt 0.250000 0.000060
vt 0.500000 0.000054
vt 0.750000 0.000049
vt 0.999989 0.250022
vt 0.999979 0.500000
vt 0.999968 0.749979
vt 0.749968 0.999979
vt 0.999957 0.999957
vt 0.499979 1.000000
vt 0.250076 0.750011
vt 0.250076 0.500022
vt 0.500065 0.500022
vt 0.500065 0.750011
vt 0.250076 0.250032
vt 0.500065 0.250032
vt 0.750054 0.500022
vt 0.750054 0.750011
vt 0.750054 0.250032
vt 0.000087 1.000000
vt 0.000087 0.750011
vt 0.250076 1.000000
vt 0.000087 0.500022
vt 0.000087 0.250032
vt 0.000087 0.000043
vt 0.250076 0.000043
vt 0.500065 0.000043
vt 0.750054 0.000043
vt 1.000043 0.000043
vt 1.000043 0.250032
vt 1.000043 0.500022
vt 1.000043 0.750011
vt 0.750054 1.000000
vt 1.000043 1.000000
vt 0.500065 1.000000
vt 0.249989 0.750016
vt 0.249989 0.500011
vt 0.499979 0.500000
vt 0.499979 0.750000
vt 0.249989 0.250005
vt 0.499979 0.250000
vt 0.749968 0.499989
vt 0.749968 0.749984
vt 0.749968 0.249995
vt 0.000000 0.750032
vt 0.000000 0.500022
vt 0.000000 0.250011
vt 0.000000 0.000000
vt 0.249989 0.000000
vt 0.499979 0.000000
vt 0.749968 0.000000
vt 0.999957 0.000000
vt 0.999957 0.249989
vt 0.999957 0.499979
vt 0.999957 0.749968
vt 0.250000 0.750043
vt 0.500000 0.500043
vt 0.250000 0.250043
vt 0.750000 0.500043
vt 0.750000 0.750043
vt 0.750000 0.250043
vt 0.000000 0.750043
vt 0.500000 0.000043
vt 0.750000 0.000043
vt 0.750000 1.000043
s 1
f 45/1/1 46/2/1 49/3/1 48/4/1
f 46/2/1 47/5/1 50/6/1 49/3/1
f 48/4/1 49/3/1 52/7/1 51/8/1
f 49/3/1 50/6/1 53/9/1 52/7/1
f 1/10/1 12/11/1 45/1/1 9/12/1
f 12/11/1 13/13/1 46/2/1 45/1/1
f 13/13/1 14/14/1 47/5/1 46/2/1
f 14/14/1 5/15/1 15/16/1 47/5/1
f 47/5/1 15/16/1 16/17/1 50/6/1
f 50/6/1 16/17/1 17/18/1 53/9/1
f 53/9/1 17/18/1 7/19/1 20/20/1
f 52/7/1 53/9/1 20/20/1 19/21/1
f 51/8/1 52/7/1 19/21/1 18/22/1
f 11/23/1 51/8/1 18/22/1 3/24/1
f 10/25/1 48/4/1 51/8/1 11/23/1
f 9/12/1 45/1/1 48/4/1 10/25/1
f 54/26/2 55/27/2 58/28/2 57/29/2
f 55/27/2 56/30/2 59/31/2 58/28/2
f 57/29/2 58/28/2 61/32/2 60/33/2
f 58/28/2 59/31/2 62/34/2 61/32/2
f 4/10/2 26/35/2 54/26/2 21/36/2
f 26/35/2 25/37/2 55/27/2 54/26/2
f 25/37/2 24/38/2 56/30/2 55/27/2
f 24/38/2 3/39/2 18/40/2 56/30/2
f 56/30/2 18/40/2 19/41/2 59/31/2
f 59/31/2 19/41/2 20/42/2 62/34/2
f 62/34/2 20/42/2 7/19/2 27/43/2
f 61/32/2 62/34/2 27/43/2 28/44/2
f 60/33/2 61/32/2 28/44/2 29/45/2
f 23/46/2 60/33/2 29/45/2 8/47/2
f 22/48/2 57/29/2 60/33/2 23/46/2
f 21/36/2 54/26/2 57/29/2 22/48/2
f 63/49/3 64/50/3 67/51/3 66/52/3
f 64/50/3 65/53/3 68/54/3 67/51/3
f 66/52/3 67/51/3 70/55/3 69/56/3
f 67/51/3 68/54/3 71/57/3 70/55/3
f 8/58/3 29/59/3 63/49/3 32/60/3
f 29/59/3 28/61/3 64/50/3 63/49/3
f 28/61/3 27/62/3 65/53/3 64/50/3
f 27/62/3 7/63/3 17/64/3 65/53/3
f 65/53/3 17/64/3 16/65/3 68/54/3
f 68/54/3 16/65/3 15/66/3 71/57/3
f 71/57/3 15/66/3 5/67/3 33/68/3
f 70/55/3 71/57/3 33/68/3 34/69/3
f 69/56/3 70/55/3 34/69/3 35/70/3
f 30/71/3 69/56/3 35/70/3 6/72/3
f 31/73/3 66/52/3 69/56/3 30/71/3
f 32/60/3 63/49/3 66/52/3 31/73/3
f 72/74/4 73/75/4 76/76/4 75/77/4
f 73/75/4 74/78/4 77/79/4 76/76/4
f 75/77/4 76/76/4 79/80/4 78/81/4
f 76/76/4 77/79/4 80/82/4 79/80/4
f 6/10/4 38/83/4 72/74/4 30/36/4
f 38/83/4 37/84/4 73/75/4 72/74/4
f 37/84/4 36/85/4 74/78/4 73/75/4
f 36/85/4 2/86/4 39/87/4 74/78/4
f 74/78/4 39/87/4 40/88/4 77/79/4
f 77/79/4 40/88/4 41/89/4 80/82/4
f 80/82/4 41/89/4 4/90/4 21/91/4
f 79/80/4 80/82/4 21/91/4 22/92/4
f 78/81/4 79/80/4 22/92/4 23/93/4
f 32/46/4 78/81/4 23/93/4 8/47/4
f 31/48/4 75/77/4 78/81/4 32/46/4
f 30/36/4 72/74/4 75/77/4 31/48/4
f 81/94/5 82/2/5 85/95/5 84/4/5
f 82/2/5 83/96/5 86/6/5 85/95/5
f 84/4/5 85/95/5 88/97/5 87/98/5
f 85/95/5 86/6/5 89/99/5 88/97/5
f 2/10/5 44/100/5 81/94/5 39/12/5
f 44/100/5 43/13/5 82/2/5 81/94/5
f 43/13/5 42/14/5 83/96/5 82/2/5
f 42/14/5 1/15/5 9/16/5 83/96/5
f 83/96/5 9/16/5 10/101/5 86/6/5
f 86/6/5 10/101/5 11/102/5 89/99/5
f 89/99/5 11/102/5 3/19/5 24/20/5
f 88/97/5 89/99/5 24/20/5 25/21/5
f 87/98/5 88/97/5 25/21/5 26/22/5
f 41/103/5 87/98/5 26/22/5 4/24/5
f 40/25/5 84/4/5 87/98/5 41/103/5
f 39/12/5 81/94/5 84/4/5 40/25/5
f 90/1/6 91/2/6 94/3/6 93/4/6
f 91/2/6 92/5/6 95/6/6 94/3/6
f 93/4/6 94/3/6 97/7/6 96/8/6
f 94/3/6 95/6/6 98/9/6 97/7/6
f 6/10/6 35/11/6 90/1/6 38/12/6
f 35/11/6 34/13/6 91/2/6 90/1/6
f 34/13/6 33/14/6 92/5/6 91/2/6
f 33/14/6 5/15/6 14/16/6 92/5/6
f 92/5/6 14/16/6 13/17/6 95/6/6
f 95/6/6 13/17/6 12/18/6 98/9/6
f 98/9/6 12/18/6 1/19/6 42/20/6
f 97/7/6 98/9/6 42/20/6 43/21/6
f 96/8/6 97/7/6 43/21/6 44/22/6
f 36/23/6 96/8/6 44/22/6 2/24/6
f 37/25/6 93/4/6 96/8/6 36/23/6
f 38/12/6 90/1/6 93/4/6 37/25/6
