# Blender 4.5.0
# www.blender.org
o Plane
v -0.067575 1.507812 -0.000000
v 0.109128 1.507812 -0.000000
v -0.303969 0.721967 -0.000000
v -0.130921 0.000000 0.000000
v 0.111242 0.000000 0.000000
v 0.032357 0.721967 -0.000000
v -0.191947 1.873310 -0.000000
v -0.067575 1.507812 -0.001803
v -0.303969 0.721967 -0.001803
v -0.130921 -0.000000 -0.001803
v -0.191947 1.873310 -0.001803
v 0.109128 1.507812 -0.001803
v 0.032357 0.721967 -0.001803
v 0.111242 -0.000000 -0.001803
vn -0.0000 -0.0000 1.0000
vn -0.0000 -0.0000 -1.0000
vt 0.000094 0.614359
vt 0.179555 0.614610
vt 0.126820 0.195214
vt 0.221108 0.999906
vt 0.091891 0.999725
vt 0.221108 0.195346
vt 0.060729 0.000094
vt 0.221296 0.614443
vt 0.347434 0.195121
vt 0.400757 0.614443
vt 0.442850 0.999680
vt 0.313633 0.999680
vt 0.441722 0.195121
vt 0.281070 0.000094
s 1
f 3/1/1 6/2/1 1/3/1
f 5/4/1 6/2/1 4/5/1
f 6/2/1 2/6/1 1/3/1
f 2/6/1 7/7/1 1/3/1
f 6/2/1 3/1/1 4/5/1
f 9/8/2 8/9/2 13/10/2
f 14/11/2 10/12/2 13/10/2
f 13/10/2 8/9/2 12/13/2
f 12/13/2 8/9/2 11/14/2
f 13/10/2 10/12/2 9/8/2
