# Blender 4.5.0
# www.blender.org
o Plane
v 0.054991 2.000031 -0.000000
v -0.066829 0.000031 0.000000
v 0.089186 0.000031 0.000000
v -0.066829 0.000031 0.000000
v 0.089186 0.000031 0.000000
v 0.111383 0.049783 0.000000
v 0.135930 0.190546 0.000000
v 0.134779 0.658801 0.000000
v 0.115855 0.940320 0.000000
v 0.056161 1.580330 -0.000000
v -0.056947 1.691574 -0.000000
v -0.134248 1.346924 -0.000000
v -0.169366 0.836717 0.000000
v -0.144619 0.425379 0.000000
v -0.085193 0.045855 0.000000
vn -0.0000 -0.0000 1.0000
vt 0.145571 0.468877
vt 0.134773 0.790306
vt 0.032738 0.679388
vt 0.146659 0.999962
vt 0.081586 0.849228
vt 0.000038 0.425606
vt 0.000177 0.219427
vt 0.146659 0.327709
vt 0.018581 0.028106
vt 0.133321 0.093803
vt 0.026391 0.004674
vt 0.104314 0.000038
vt 0.116878 0.024228
s 0
f 9/1/1 10/2/1 12/3/1
f 10/2/1 1/4/1 11/5/1
f 11/5/1 12/3/1 10/2/1
f 12/3/1 13/6/1 9/1/1
f 13/6/1 14/7/1 8/8/1
f 14/7/1 15/9/1 7/10/1
f 15/9/1 4/11/1 5/12/1
f 5/12/1 6/13/1 15/9/1
f 6/13/1 7/10/1 15/9/1
f 7/10/1 8/8/1 14/7/1
f 8/8/1 9/1/1 13/6/1
l 2 3
