# Blender 4.5.0
# www.blender.org
o Cube
v 0.478857 0.526919 -0.493004
v 0.513671 -0.472277 -0.512930
v 0.485700 0.507219 0.506779
v 0.520513 -0.491976 0.486852
v -0.520513 0.491976 -0.486852
v -0.485700 -0.507219 -0.506779
v -0.513671 0.472277 0.512930
v -0.478857 -0.526919 0.493004
v 0.550597 0.598335 -0.288693
v 0.587963 0.630377 0.008397
v 0.554656 0.586647 0.304478
v 0.272597 0.594124 -0.563216
v -0.025392 0.621086 -0.597289
v -0.320329 0.573393 -0.559567
v -0.594548 0.558296 -0.281645
v -0.630405 0.587778 0.015896
v -0.590488 0.546608 0.311526
v 0.280438 0.571550 0.582400
v -0.017050 0.597069 0.621582
v -0.312489 0.550819 0.586049
v 0.320329 -0.573393 0.559567
v 0.025392 -0.621086 0.597289
v -0.272597 -0.594124 0.563216
v 0.566165 0.305144 0.575195
v 0.613355 0.009291 0.605686
v 0.586820 -0.287678 0.563373
v -0.578979 0.265105 0.582244
v -0.605013 -0.033308 0.613185
v -0.558324 -0.327717 0.570421
v -0.554656 -0.586647 -0.304478
v -0.587963 -0.630377 -0.008397
v -0.550597 -0.598335 0.288693
v -0.586820 0.287678 -0.563373
v -0.613355 -0.009291 -0.605686
v -0.566165 -0.305144 -0.575195
v 0.312489 -0.550820 -0.586049
v 0.017050 -0.597069 -0.621582
v -0.280438 -0.571551 -0.582400
v 0.590488 -0.546608 -0.311526
v 0.630405 -0.587778 -0.015896
v 0.594548 -0.558296 0.281645
v 0.558325 0.327717 -0.570421
v 0.605013 0.033308 -0.613185
v 0.578979 -0.265105 -0.582244
v 0.288416 0.745679 -0.303507
v -0.029498 0.787762 -0.317489
v -0.343500 0.723584 -0.299617
v 0.305713 0.792840 0.013530
v -0.029226 0.838831 0.016728
v -0.360149 0.769559 0.017628
v 0.292743 0.733222 0.328670
v -0.024938 0.774637 0.348647
v -0.339173 0.711128 0.332559
v 0.331953 -0.319216 0.720587
v 0.338280 -0.003761 0.779610
v 0.309940 0.312589 0.733187
v 0.016947 -0.348274 0.775020
v 0.005744 -0.016538 0.839324
v -0.006248 0.317471 0.788297
v -0.299964 -0.341311 0.724476
v -0.327581 -0.027042 0.783708
v -0.321976 0.290495 0.737076
v -0.715361 -0.347603 0.314273
v -0.779057 -0.033881 0.337877
v -0.737374 0.284202 0.326872
v -0.769739 -0.360191 -0.001829
v -0.838978 -0.029334 0.005164
v -0.792934 0.305554 0.011447
v -0.719688 -0.335147 -0.317904
v -0.783616 -0.020756 -0.328259
v -0.741701 0.296659 -0.305304
v -0.292743 -0.733222 -0.328670
v 0.024938 -0.774637 -0.348647
v 0.339173 -0.711128 -0.332559
v -0.305713 -0.792840 -0.013530
v 0.029226 -0.838831 -0.016728
v 0.360149 -0.769559 -0.017628
v -0.288416 -0.745679 0.303507
v 0.029498 -0.787762 0.317489
v 0.343500 -0.723584 0.299617
v 0.737374 -0.284202 -0.326872
v 0.779057 0.033881 -0.337877
v 0.715361 0.347603 -0.314273
v 0.792934 -0.305554 -0.011447
v 0.838978 0.029334 -0.005164
v 0.769739 0.360191 0.001829
v 0.741701 -0.296659 0.305304
v 0.783616 0.020756 0.328259
v 0.719688 0.335147 0.317904
v -0.309940 -0.312589 -0.733186
v -0.338280 0.003761 -0.779610
v -0.331953 0.319216 -0.720587
v 0.006248 -0.317471 -0.788297
v -0.005744 0.016538 -0.839324
v -0.016947 0.348274 -0.775020
v 0.321976 -0.290495 -0.737076
v 0.327581 0.027042 -0.783708
v 0.299964 0.341311 -0.724476
vn 0.1346 0.9793 -0.1513
vn -0.2045 0.9674 -0.1492
vn 0.1369 0.9726 0.1879
vn -0.2022 0.9607 0.1900
vn 0.4377 0.7754 -0.4552
vn 0.1350 0.8522 -0.5056
vn -0.2004 0.8404 -0.5035
vn -0.4964 0.7427 -0.4494
vn -0.5513 0.8211 -0.1479
vn -0.5490 0.8145 0.1876
vn -0.4900 0.7243 0.4851
vn -0.1932 0.8199 0.5389
vn 0.1421 0.8316 0.5369
vn 0.4441 0.7570 0.4793
vn 0.4930 0.8509 0.1812
vn 0.4907 0.8575 -0.1543
vn 0.1821 -0.1827 0.9661
vn 0.1703 0.1563 0.9729
vn -0.1570 -0.1946 0.9682
vn -0.1688 0.1445 0.9750
vn 0.4885 -0.4654 0.7381
vn 0.5326 -0.1659 0.8300
vn 0.5209 0.1694 0.8367
vn 0.4559 0.4685 0.7567
vn 0.1552 0.5103 0.8459
vn -0.1801 0.4986 0.8479
vn -0.4782 0.4359 0.7625
vn -0.5211 0.1329 0.8431
vn -0.5094 -0.2023 0.8364
vn -0.4457 -0.4981 0.7438
vn -0.1438 -0.5433 0.8272
vn 0.1915 -0.5315 0.8251
vn -0.9631 -0.2068 0.1722
vn -0.9749 0.1323 0.1790
vn -0.9654 -0.2001 -0.1670
vn -0.9772 0.1390 -0.1603
vn -0.7305 -0.5024 0.4626
vn -0.8268 -0.2071 0.5230
vn -0.8384 0.1281 0.5297
vn -0.7630 0.4316 0.4812
vn -0.8532 0.4884 0.1833
vn -0.8555 0.4950 -0.1522
vn -0.7694 0.4500 -0.4533
vn -0.8456 0.1487 -0.5127
vn -0.8339 -0.1866 -0.5194
vn -0.7369 -0.4840 -0.4720
vn -0.8192 -0.5468 -0.1730
vn -0.8169 -0.5535 0.1625
vn -0.1369 -0.9726 -0.1879
vn 0.2022 -0.9607 -0.1900
vn -0.1346 -0.9793 0.1513
vn 0.2045 -0.9674 0.1492
vn -0.4441 -0.7570 -0.4793
vn -0.1421 -0.8316 -0.5369
vn 0.1932 -0.8199 -0.5389
vn 0.4900 -0.7243 -0.4851
vn 0.5490 -0.8145 -0.1876
vn 0.5513 -0.8211 0.1479
vn 0.4964 -0.7427 0.4494
vn 0.2004 -0.8404 0.5035
vn -0.1350 -0.8522 0.5056
vn -0.4377 -0.7754 0.4552
vn -0.4907 -0.8575 0.1543
vn -0.4930 -0.8509 -0.1812
vn 0.9749 -0.1323 -0.1790
vn 0.9631 0.2068 -0.1722
vn 0.9772 -0.1390 0.1603
vn 0.9654 0.2001 0.1670
vn 0.7630 -0.4316 -0.4812
vn 0.8384 -0.1281 -0.5297
vn 0.8268 0.2071 -0.5230
vn 0.7305 0.5024 -0.4626
vn 0.8169 0.5535 -0.1625
vn 0.8192 0.5468 0.1730
vn 0.7369 0.4840 0.4720
vn 0.8339 0.1866 0.5194
vn 0.8456 -0.1487 0.5127
vn 0.7694 -0.4500 0.4533
vn 0.8555 -0.4950 0.1522
vn 0.8532 -0.4884 -0.1833
vn -0.1703 -0.1563 -0.9729
vn -0.1821 0.1827 -0.9661
vn 0.1688 -0.1445 -0.9750
vn 0.1570 0.1946 -0.9682
vn -0.4559 -0.4685 -0.7567
vn -0.5209 -0.1694 -0.8367
vn -0.5326 0.1659 -0.8300
vn -0.4885 0.4654 -0.7381
vn -0.1915 0.5315 -0.8251
vn 0.1438 0.5433 -0.8272
vn 0.4457 0.4981 -0.7438
vn 0.5094 0.2023 -0.8364
vn 0.5211 -0.1329 -0.8431
vn 0.4782 -0.4359 -0.7625
vn 0.1801 -0.4986 -0.8479
vn -0.1552 -0.5103 -0.8459
vt 0.250000 0.750043
vt 0.250000 0.500043
vt 0.500000 0.500043
vt 0.500000 0.750043
vt 0.250000 0.250043
vt 0.500000 0.250043
vt 0.750000 0.500043
vt 0.750000 0.750043
vt 0.750000 0.250043
vt 0.000000 1.000043
vt 0.000000 0.750043
vt 0.250000 1.000043
vt 0.000000 0.500043
vt 0.000000 0.250043
vt 0.000000 0.000043
vt 0.250000 0.000043
vt 0.500000 0.000043
vt 0.750000 0.000043
vt 1.000000 0.000043
vt 1.000000 0.250043
vt 1.000000 0.500043
vt 1.000000 0.750043
vt 0.750000 1.000043
vt 1.000000 1.000043
vt 0.500000 1.000043
vt 0.249992 0.750031
vt 0.249995 0.500041
vt 0.499989 0.500027
vt 0.499984 0.750014
vt 0.249997 0.250050
vt 0.499995 0.250041
vt 0.749984 0.500014
vt 0.749976 0.749996
vt 0.749992 0.250031
vt 0.000000 0.750049
vt 0.249989 1.000022
vt 0.000000 0.500054
vt 0.000000 0.250060
vt 0.000000 0.000065
vt 0.250000 0.000060
vt 0.500000 0.000054
vt 0.750000 0.000049
vt 0.999989 0.250022
vt 0.999979 0.500000
vt 0.999968 0.749979
vt 0.749968 0.999979
vt 0.999957 0.999957
vt 0.499979 1.000000
vt 0.250076 0.750011
vt 0.250076 0.500022
vt 0.500065 0.500022
vt 0.500065 0.750011
vt 0.250076 0.250032
vt 0.500065 0.250032
vt 0.750054 0.500022
vt 0.750054 0.750011
vt 0.750054 0.250032
vt 0.000087 1.000000
vt 0.000087 0.750011
vt 0.250076 1.000000
vt 0.000087 0.500022
vt 0.000087 0.250032
vt 0.000087 0.000043
vt 0.250076 0.000043
vt 0.500065 0.000043
vt 0.750054 0.000043
vt 1.000043 0.000043
vt 1.000043 0.250032
vt 1.000043 0.500022
vt 1.000043 0.750011
vt 0.750054 1.000000
vt 1.000043 1.000000
vt 0.500065 1.000000
vt 0.249989 0.750016
vt 0.249989 0.500011
vt 0.499979 0.500000
vt 0.499979 0.750000
vt 0.249989 0.250005
vt 0.499979 0.250000
vt 0.749968 0.499989
vt 0.749968 0.749984
vt 0.749968 0.249995
vt 0.000000 0.750032
vt 0.000000 0.500022
vt 0.000000 0.250011
vt 0.000000 0.000000
vt 0.249989 0.000000
vt 0.499979 0.000000
vt 0.749968 0.000000
vt 0.999957 0.000000
vt 0.999957 0.249989
vt 0.999957 0.499979
vt 0.999957 0.749968
s 0
f 45/1/1 46/2/1 49/3/1 48/4/1
f 46/2/2 47/5/2 50/6/2 49/3/2
f 48/4/3 49/3/3 52/7/3 51/8/3
f 49/3/4 50/6/4 53/9/4 52/7/4
f 1/10/5 12/11/5 45/1/5 9/12/5
f 12/11/6 13/13/6 46/2/6 45/1/6
f 13/13/7 14/14/7 47/5/7 46/2/7
f 14/14/8 5/15/8 15/16/8 47/5/8
f 47/5/9 15/16/9 16/17/9 50/6/9
f 50/6/10 16/17/10 17/18/10 53/9/10
f 53/9/11 17/18/11 7/19/11 20/20/11
f 52/7/12 53/9/12 20/20/12 19/21/12
f 51/8/13 52/7/13 19/21/13 18/22/13
f 11/23/14 51/8/14 18/22/14 3/24/14
f 10/25/15 48/4/15 51/8/15 11/23/15
f 9/12/16 45/1/16 48/4/16 10/25/16
f 54/26/17 55/27/17 58/28/17 57/29/17
f 55/27/18 56/30/18 59/31/18 58/28/18
f 57/29/19 58/28/19 61/32/19 60/33/19
f 58/28/20 59/31/20 62/34/20 61/32/20
f 4/10/21 26/35/21 54/26/21 21/36/21
f 26/35/22 25/37/22 55/27/22 54/26/22
f 25/37/23 24/38/23 56/30/23 55/27/23
f 24/38/24 3/39/24 18/40/24 56/30/24
f 56/30/25 18/40/25 19/41/25 59/31/25
f 59/31/26 19/41/26 20/42/26 62/34/26
f 62/34/27 20/42/27 7/19/27 27/43/27
f 61/32/28 62/34/28 27/43/28 28/44/28
f 60/33/29 61/32/29 28/44/29 29/45/29
f 23/46/30 60/33/30 29/45/30 8/47/30
f 22/48/31 57/29/31 60/33/31 23/46/31
f 21/36/32 54/26/32 57/29/32 22/48/32
f 63/49/33 64/50/33 67/51/33 66/52/33
f 64/50/34 65/53/34 68/54/34 67/51/34
f 66/52/35 67/51/35 70/55/35 69/56/35
f 67/51/36 68/54/36 71/57/36 70/55/36
f 8/58/37 29/59/37 63/49/37 32/60/37
f 29/59/38 28/61/38 64/50/38 63/49/38
f 28/61/39 27/62/39 65/53/39 64/50/39
f 27/62/40 7/63/40 17/64/40 65/53/40
f 65/53/41 17/64/41 16/65/41 68/54/41
f 68/54/42 16/65/42 15/66/42 71/57/42
f 71/57/43 15/66/43 5/67/43 33/68/43
f 70/55/44 71/57/44 33/68/44 34/69/44
f 69/56/45 70/55/45 34/69/45 35/70/45
f 30/71/46 69/56/46 35/70/46 6/72/46
f 31/73/47 66/52/47 69/56/47 30/71/47
f 32/60/48 63/49/48 66/52/48 31/73/48
f 72/74/49 73/75/49 76/76/49 75/77/49
f 73/75/50 74/78/50 77/79/50 76/76/50
f 75/77/51 76/76/51 79/80/51 78/81/51
f 76/76/52 77/79/52 80/82/52 79/80/52
f 6/10/53 38/83/53 72/74/53 30/36/53
f 38/83/54 37/84/54 73/75/54 72/74/54
f 37/84/55 36/85/55 74/78/55 73/75/55
f 36/85/56 2/86/56 39/87/56 74/78/56
f 74/78/57 39/87/57 40/88/57 77/79/57
f 77/79/58 40/88/58 41/89/58 80/82/58
f 80/82/59 41/89/59 4/90/59 21/91/59
f 79/80/60 80/82/60 21/91/60 22/92/60
f 78/81/61 79/80/61 22/92/61 23/93/61
f 32/46/62 78/81/62 23/93/62 8/47/62
f 31/48/63 75/77/63 78/81/63 32/46/63
f 30/36/64 72/74/64 75/77/64 31/48/64
f 81/1/65 82/2/65 85/3/65 84/4/65
f 82/2/66 83/5/66 86/6/66 85/3/66
f 84/4/67 85/3/67 88/7/67 87/8/67
f 85/3/68 86/6/68 89/9/68 88/7/68
f 2/10/69 44/11/69 81/1/69 39/12/69
f 44/11/70 43/13/70 82/2/70 81/1/70
f 43/13/71 42/14/71 83/5/71 82/2/71
f 42/14/72 1/15/72 9/16/72 83/5/72
f 83/5/73 9/16/73 10/17/73 86/6/73
f 86/6/74 10/17/74 11/18/74 89/9/74
f 89/9/75 11/18/75 3/19/75 24/20/75
f 88/7/76 89/9/76 24/20/76 25/21/76
f 87/8/77 88/7/77 25/21/77 26/22/77
f 41/23/78 87/8/78 26/22/78 4/24/78
f 40/25/79 84/4/79 87/8/79 41/23/79
f 39/12/80 81/1/80 84/4/80 40/25/80
f 90/1/81 91/2/81 94/3/81 93/4/81
f 91/2/82 92/5/82 95/6/82 94/3/82
f 93/4/83 94/3/83 97/7/83 96/8/83
f 94/3/84 95/6/84 98/9/84 97/7/84
f 6/10/85 35/11/85 90/1/85 38/12/85
f 35/11/86 34/13/86 91/2/86 90/1/86
f 34/13/87 33/14/87 92/5/87 91/2/87
f 33/14/88 5/15/88 14/16/88 92/5/88
f 92/5/89 14/16/89 13/17/89 95/6/89
f 95/6/90 13/17/90 12/18/90 98/9/90
f 98/9/91 12/18/91 1/19/91 42/20/91
f 97/7/92 98/9/92 42/20/92 43/21/92
f 96/8/93 97/7/93 43/21/93 44/22/93
f 36/23/94 96/8/94 44/22/94 2/24/94
f 37/25/95 93/4/95 96/8/95 36/23/95
f 38/12/96 90/1/96 93/4/96 37/25/96
